
<svg width="120" height="28" viewBox="0 0 120 28" fill="none" xmlns="http://www.w3.org/2000/svg">
<path d="M12.4958 24.6995C12.0215 25.6995 11.2779 26.5474 10.3485 27.1481C9.44789 27.7148 8.22086 27.9981 6.66736 27.9981C4.57303 27.9981 2.94007 27.3926 1.76848 26.1816C0.596884 24.9706 0.00739175 23.2434 0 21V10.1637H2.9992V20.4936C2.9992 22.0718 3.39897 23.2717 4.19851 24.0934C4.99806 24.9151 6.15363 25.326 7.66525 25.326C9.3752 25.326 10.6909 24.8098 11.6124 23.7774C12.5339 22.745 12.9953 21.2051 12.9965 19.1576V10.1637H15.9957V27.4973H12.9965V24.6995H12.4958Z" fill="#252D3D"/>
<path d="M58.4817 24.6995C58.007 25.6997 57.2627 26.5476 56.3326 27.1481C55.4332 27.7148 54.2062 27.9981 52.6515 27.9981C50.5571 27.9981 48.9242 27.3926 47.7526 26.1816C46.581 24.9706 45.9921 23.2458 45.986 21.0074V10.1637H48.9852V20.4936C48.9852 22.0718 49.3849 23.2717 50.1845 24.0934C50.984 24.9151 52.1396 25.326 53.6512 25.326C55.3612 25.326 56.6769 24.8098 57.5984 23.7774C58.5199 22.745 58.9813 21.2051 58.9825 19.1576V10.1637H61.9817V27.4973H58.9825V24.6995H58.4817Z" fill="#252D3D"/>
<path d="M37.5555 12.8358C38.1321 11.0137 39.5649 10.1027 41.8538 10.1027H43.3211V13.1019H41.4214C39.932 13.1019 38.8232 13.4573 38.0951 14.1681C37.367 14.879 36.9975 16.0456 36.9864 17.6681V27.4973H33.989V10.1636H36.9882V12.8358H37.5555Z" fill="#252D3D"/>
<path d="M77.5266 10.4021C78.6065 10.842 79.5457 11.5685 80.243 12.5032C80.9132 13.4248 81.2853 14.5294 81.3093 15.6687H78.1438C77.9639 13.4512 76.4086 12.3424 73.4777 12.3424C72.2113 12.3424 71.2257 12.5888 70.521 13.0816C69.8163 13.5744 69.4702 14.1922 69.4825 14.9351C69.4825 15.5806 69.7215 16.0469 70.1995 16.334C70.6775 16.621 71.4937 16.8877 72.648 17.1341L75.8135 17.8012C77.5247 18.156 78.8411 18.6667 79.7626 19.3332C80.6841 19.9996 81.1454 21.0548 81.1467 22.4987C81.159 23.5255 80.8308 24.5275 80.2135 25.3482C79.5349 26.2241 78.6302 26.8982 77.5968 27.2978C76.3624 27.7859 75.0433 28.0239 73.7161 27.9981C71.0711 27.9981 69.0273 27.4037 67.5847 26.2149C66.142 25.026 65.276 23.4541 64.9865 21.4989H68.152C68.5733 24.054 70.428 25.3316 73.7161 25.3316C75.1612 25.3316 76.2613 25.0704 77.0165 24.548C77.7717 24.0257 78.1493 23.398 78.1493 22.665C78.1621 22.4639 78.1347 22.2623 78.0687 22.0719C78.0027 21.8816 77.8994 21.7063 77.7649 21.5562C77.4687 21.2782 77.108 21.0781 76.7153 20.9741C76.2693 20.8411 75.5252 20.6631 74.483 20.4401L71.3119 19.773C69.7781 19.4613 68.5893 18.9389 67.7454 18.2059C66.9015 17.4729 66.4796 16.4066 66.4796 15.0071C66.4575 14.2414 66.6292 13.4825 66.9787 12.8009C67.3283 12.1192 67.8444 11.5369 68.4791 11.108C69.8108 10.152 71.5325 9.6746 73.644 9.67583C74.9743 9.65644 76.2947 9.90793 77.5247 10.415" fill="#252D3D"/>
<path d="M25.8266 24.8326H30.8161V27.4973H28.4914C26.5806 27.4973 25.1589 27.031 24.2263 26.0984C23.2937 25.1658 22.8268 23.7442 22.8256 21.8334V12.8358H18.8267V10.1637H22.8256V5.50502H25.8248V10.1637H30.3245V12.8358H25.8248V24.8326H25.8266Z" fill="#252D3D"/>
<path d="M90.0408 24.8326H95.0302V27.4973H92.7055C90.7947 27.4973 89.373 27.031 88.4404 26.0984C87.5079 25.1658 87.0403 23.7442 87.0379 21.8334V12.8358H83.0408V10.1637H87.0379V5.50502H90.0371V10.1637H94.5368V12.8358H90.0389V24.8326H90.0408Z" fill="#252D3D"/>
<path d="M115.84 3.90284V16.94H103.327V3.90284H115.84V0H108.164L99.4302 6.77084V11.1172C99.4302 16.7978 104.08 21.5691 109.76 21.4656C112.421 21.4173 114.957 20.3269 116.823 18.4288C118.689 16.5308 119.736 13.9765 119.739 11.3149V3.90284H115.84Z" fill="#6932D4"/>
</svg>
