<svg width="100" height="61" viewBox="0 0 100 61" fill="none" xmlns="http://www.w3.org/2000/svg">
<path d="M73.4851 16.8437C73.2066 13.5721 70.4506 12.4502 66.9613 12.1052L67.0022 7.57124L64.2969 7.54602L64.2571 11.9605C63.5459 11.9539 62.8188 11.9614 62.0964 11.9693L62.137 7.52557L59.4331 7.5L59.3911 12.0327C58.8053 12.0394 58.23 12.0451 57.6691 12.0401L57.6689 12.0261L53.9376 11.9896L53.9116 14.9372C53.9116 14.9372 55.9097 14.9171 55.8762 14.9544C56.972 14.965 57.3227 15.6174 57.4214 16.1783L57.3749 21.3435C57.4505 21.3447 57.5491 21.3488 57.6606 21.3655C57.5705 21.3647 57.4741 21.3632 57.3749 21.3631L57.3086 28.599C57.2573 28.9504 57.0496 29.5094 56.284 29.5035C56.3183 29.5351 54.3174 29.4845 54.3174 29.4845L53.75 32.7753L57.2706 32.8083C57.9258 32.8153 58.5703 32.8327 59.2031 32.8428L59.1628 37.4284L61.8652 37.4543L61.9062 32.9172C62.648 32.9398 63.3661 32.9526 64.0671 32.9586L64.0251 37.4748L66.7304 37.5L66.7727 32.9225C71.3233 32.6992 74.5173 31.5603 74.952 27.2069C75.3029 23.7015 73.6993 22.1208 71.1232 21.464C72.6991 20.6641 73.6927 19.2377 73.4851 16.8437ZM69.6113 26.6131C69.5818 30.04 63.8334 29.596 61.9999 29.5805L62.0557 23.5049C63.8897 23.5226 69.6439 23.0389 69.6113 26.6131ZM68.4307 18.0294C68.4016 21.1471 63.608 20.7381 62.0807 20.7238L62.1308 15.2135C63.658 15.2277 68.4598 14.7775 68.4307 18.0294Z" fill="#94F0B4"/>
<path d="M98.4485 0H31.1521C30.2952 0 29.6007 0.694526 29.6007 1.55147V19.4174C25.2484 19.631 21.4365 19.973 19.4846 20.5825C14.9641 21.9958 1.56931 27.0756 1.00144 27.2914C0.200249 27.5956 -0.202761 28.4914 0.101464 29.2925C0.405689 30.0937 1.30022 30.4937 2.10202 30.1931C2.2402 30.1398 15.9774 24.9302 20.41 23.5448C23.6081 22.546 34.1836 22.3182 41.1822 22.1679C43.0912 22.1267 44.8384 22.0891 46.2784 22.043C46.4214 23.0066 46.4445 24.4963 45.6602 25.9011C44.5657 27.8598 42.1973 29.198 38.6192 29.8804C26.4941 32.1894 21.9942 35.7033 21.8088 35.8511C21.1427 36.3845 21.0354 37.3517 21.5639 38.0208C21.8694 38.4087 22.3233 38.6099 22.7821 38.6099C23.1172 38.6099 23.4548 38.502 23.739 38.2814C23.7648 38.2605 25.4757 36.9661 29.6007 35.4763V42.8994C29.6007 43.7564 30.2952 44.4509 31.1522 44.4509H60.8912C59.6388 45.2044 58.3063 46.0296 56.8988 46.9017C49.4596 51.5113 40.1992 57.276 34.3363 57.1306C28.0213 57.0045 23.1972 56.0215 17.6113 54.8821C13.1545 53.9731 8.10249 52.9428 1.70569 52.304C0.85116 52.2168 0.0924034 52.841 0.00815219 53.6943C-0.077303 54.5464 0.545111 55.3064 1.39781 55.3924C7.63704 56.0154 12.3927 56.9851 16.9913 57.9221C22.4869 59.0432 27.6777 60.1014 34.2745 60.2335C34.3533 60.2347 34.4315 60.2359 34.5109 60.2359C41.2707 60.2359 50.4359 54.5561 58.5332 49.5393C61.8394 47.4904 64.9607 45.5601 67.2886 44.4509H98.4485C99.3055 44.4509 100 43.7564 100 42.8994V1.55147C100 0.694526 99.3055 0 98.4485 0ZM96.897 10.4505L89.5498 3.10295H96.897V10.4505ZM40.0508 3.10295L32.7036 10.4505V3.10295H40.0508ZM32.7036 34.4735C34.5439 33.9376 36.6862 33.4064 39.1998 32.9276C43.7215 32.067 46.8063 30.2113 48.3693 27.4138C50.3856 23.8042 48.9965 20.0516 48.9365 19.894C48.6977 19.2686 48.082 18.8492 47.419 18.8953C45.816 18.9656 43.6045 19.0128 41.1155 19.0662C38.4265 19.1237 35.5197 19.1872 32.7036 19.2872V14.8384L44.4385 3.10296H85.1622L96.897 14.8384V29.6416L85.1913 41.348H66.892C66.8882 41.348 66.8847 41.3478 66.881 41.348H32.7036V34.4735ZM89.5789 41.348L96.897 34.0295V41.348H89.5789Z" fill="url(#paint0_linear_1_105)"/>
<defs>
<linearGradient id="paint0_linear_1_105" x1="50" y1="0" x2="50" y2="60.2359" gradientUnits="userSpaceOnUse">
<stop stop-color="#252D3D"/>
<stop offset="1" stop-color="#252D3D" stop-opacity="0.1"/>
</linearGradient>
</defs>
</svg>
